<?xml version="1.0" encoding="iso-8859-1"?>
<!-- Generator: Adobe Illustrator 16.0.0, SVG Export Plug-In . SVG Version: 6.00 Build 0)  -->
<!DOCTYPE svg PUBLIC "-//W3C//DTD SVG 1.1//EN" "http://www.w3.org/Graphics/SVG/1.1/DTD/svg11.dtd">
<svg xmlns="http://www.w3.org/2000/svg" xmlns:xlink="http://www.w3.org/1999/xlink" version="1.1" id="Capa_1" x="0px" y="0px" width="512px" height="512px" viewBox="0 0 32 32" style="enable-background:new 0 0 32 32;" xml:space="preserve">
<g>
	<g id="Shape_76">
		<g>
			<path d="M14.5,22c4.137,0,7.5-4.094,7.5-9.125c0-5.032-3.363-9.125-7.5-9.125c-2.046,0-3.956,0.979-5.378,2.755     C7.753,8.217,6.999,10.479,7,12.875C7,17.907,10.364,22,14.5,22z M14.5,5.75c3.032,0,5.5,3.196,5.5,7.125     C20,16.805,17.532,20,14.5,20S9,16.805,8.998,12.875C8.998,8.946,11.466,5.75,14.5,5.75z M20.799,21c-0.553,0-1,0.447-1,1     s0.447,1,1,1C24.218,23,27,25.782,27,29.202C27,29.641,26.641,30,26.199,30h-23.4C2.359,30,2,29.643,2,29.202     C2,25.782,4.781,23,8.199,23c0.553,0,1-0.447,1-1s-0.447-1-1-1C3.678,21,0,24.68,0,29.202C0,30.745,1.256,32,2.799,32h23.4     C27.743,32,29,30.745,29,29.202C29,24.68,25.32,21,20.799,21z M15.231,2.639c0.716-0.424,1.479-0.638,2.269-0.638     c3.032,0,5.5,3.196,5.5,7.124c0,0.705-0.078,1.396-0.232,2.057c-0.127,0.538,0.207,1.076,0.744,1.202     c0.077,0.019,0.153,0.026,0.229,0.026c0.454,0,0.864-0.311,0.973-0.771C24.902,10.828,25,9.983,25,9.125     C25,4.094,21.637,0,17.5,0c-1.137,0-2.272,0.317-3.286,0.917c-0.476,0.281-0.633,0.895-0.352,1.37     C14.143,2.762,14.758,2.92,15.231,2.639z M24,17c-0.553,0-1,0.447-1,1s0.447,1,1,1c3.419,0,6,2.85,6,6.268     c0,0.113-0.021,0.226-0.068,0.326c-0.224,0.506,0.004,1.096,0.508,1.32C30.57,26.973,30.709,27,30.846,27     c0.383,0,0.748-0.223,0.914-0.594c0.159-0.359,0.24-0.742,0.24-1.141C32,20.747,28.521,17,24,17z" fill="#FFFFFF"/>
		</g>
	</g>
</g>
<g>
</g>
<g>
</g>
<g>
</g>
<g>
</g>
<g>
</g>
<g>
</g>
<g>
</g>
<g>
</g>
<g>
</g>
<g>
</g>
<g>
</g>
<g>
</g>
<g>
</g>
<g>
</g>
<g>
</g>
</svg>
